<?xml version="1.0" encoding="UTF-8" standalone="no"?>
<!DOCTYPE svg PUBLIC "-//W3C//DTD SVG 1.1//EN"
 "http://www.w3.org/Graphics/SVG/1.1/DTD/svg11.dtd">
<!-- Generated by graphviz version 2.38.0 (20140413.2041)
 -->
<!-- Title: snakemake_dag Pages: 1 -->
<svg width="115pt" height="116pt"
 viewBox="0.00 0.00 115.00 116.00" xmlns="http://www.w3.org/2000/svg" xmlns:xlink="http://www.w3.org/1999/xlink">
<g id="graph0" class="graph" transform="scale(1 1) rotate(0) translate(4 112)">
<title>snakemake_dag</title>
<polygon fill="white" stroke="none" points="-4,4 -4,-112 111,-112 111,4 -4,4"/>
<!-- 0 -->
<g id="node1" class="node"><title>0</title>
<path fill="none" stroke="#d85656" stroke-width="2" d="M68.5,-36C68.5,-36 38.5,-36 38.5,-36 32.5,-36 26.5,-30 26.5,-24 26.5,-24 26.5,-12 26.5,-12 26.5,-6 32.5,-0 38.5,-0 38.5,-0 68.5,-0 68.5,-0 74.5,-0 80.5,-6 80.5,-12 80.5,-12 80.5,-24 80.5,-24 80.5,-30 74.5,-36 68.5,-36"/>
<text text-anchor="middle" x="53.5" y="-15.5" font-family="sans" font-size="10.00">all</text>
</g>
<!-- 1 -->
<g id="node2" class="node"><title>1</title>
<path fill="none" stroke="#59d856" stroke-width="2" d="M95,-108C95,-108 12,-108 12,-108 6,-108 -7.10543e-15,-102 -7.10543e-15,-96 -7.10543e-15,-96 -7.10543e-15,-84 -7.10543e-15,-84 -7.10543e-15,-78 6,-72 12,-72 12,-72 95,-72 95,-72 101,-72 107,-78 107,-84 107,-84 107,-96 107,-96 107,-102 101,-108 95,-108"/>
<text text-anchor="middle" x="53.5" y="-87.5" font-family="sans" font-size="10.00">create_index</text>
</g>
<!-- 1&#45;&gt;0 -->
<g id="edge1" class="edge"><title>1&#45;&gt;0</title>
<path fill="none" stroke="grey" stroke-width="2" d="M53.5,-71.6966C53.5,-63.9827 53.5,-54.7125 53.5,-46.1124"/>
<polygon fill="grey" stroke="grey" stroke-width="2" points="57.0001,-46.1043 53.5,-36.1043 50.0001,-46.1044 57.0001,-46.1043"/>
</g>
</g>
</svg>
