<?xml version="1.0" encoding="UTF-8" standalone="no"?>
<!DOCTYPE svg PUBLIC "-//W3C//DTD SVG 1.1//EN"
 "http://www.w3.org/Graphics/SVG/1.1/DTD/svg11.dtd">
<!-- Generated by graphviz version 2.38.0 (20140413.2041)
 -->
<!-- Title: snakemake_dag Pages: 1 -->
<svg width="214pt" height="188pt"
 viewBox="0.00 0.00 214.00 188.00" xmlns="http://www.w3.org/2000/svg" xmlns:xlink="http://www.w3.org/1999/xlink">
<g id="graph0" class="graph" transform="scale(1 1) rotate(0) translate(4 184)">
<title>snakemake_dag</title>
<polygon fill="white" stroke="none" points="-4,4 -4,-184 210,-184 210,4 -4,4"/>
<!-- 0 -->
<g id="node1" class="node"><title>0</title>
<path fill="none" stroke="#d6d856" stroke-width="2" d="M82,-36C82,-36 12,-36 12,-36 6,-36 -7.10543e-15,-30 -7.10543e-15,-24 -7.10543e-15,-24 -7.10543e-15,-12 -7.10543e-15,-12 -7.10543e-15,-6 6,-0 12,-0 12,-0 82,-0 82,-0 88,-0 94,-6 94,-12 94,-12 94,-24 94,-24 94,-30 88,-36 82,-36"/>
<text text-anchor="middle" x="47" y="-15.5" font-family="sans" font-size="10.00">samtools_index</text>
</g>
<!-- 1 -->
<g id="node2" class="node"><title>1</title>
<path fill="none" stroke="#d6d856" stroke-width="2" d="M194,-36C194,-36 124,-36 124,-36 118,-36 112,-30 112,-24 112,-24 112,-12 112,-12 112,-6 118,-0 124,-0 124,-0 194,-0 194,-0 200,-0 206,-6 206,-12 206,-12 206,-24 206,-24 206,-30 200,-36 194,-36"/>
<text text-anchor="middle" x="159" y="-15.5" font-family="sans" font-size="10.00">samtools_index</text>
</g>
<!-- 2 -->
<g id="node3" class="node"><title>2</title>
<path fill="none" stroke="#59d856" stroke-width="2" d="M78,-108C78,-108 16,-108 16,-108 10,-108 4,-102 4,-96 4,-96 4,-84 4,-84 4,-78 10,-72 16,-72 16,-72 78,-72 78,-72 84,-72 90,-78 90,-84 90,-84 90,-96 90,-96 90,-102 84,-108 78,-108"/>
<text text-anchor="middle" x="47" y="-93" font-family="sans" font-size="10.00">samtools_sort</text>
<text text-anchor="middle" x="47" y="-82" font-family="sans" font-size="10.00">sample: A</text>
</g>
<!-- 2&#45;&gt;0 -->
<g id="edge1" class="edge"><title>2&#45;&gt;0</title>
<path fill="none" stroke="grey" stroke-width="2" d="M47,-71.6966C47,-63.9827 47,-54.7125 47,-46.1124"/>
<polygon fill="grey" stroke="grey" stroke-width="2" points="50.5001,-46.1043 47,-36.1043 43.5001,-46.1044 50.5001,-46.1043"/>
</g>
<!-- 3 -->
<g id="node4" class="node"><title>3</title>
<path fill="none" stroke="#59d856" stroke-width="2" d="M190,-108C190,-108 128,-108 128,-108 122,-108 116,-102 116,-96 116,-96 116,-84 116,-84 116,-78 122,-72 128,-72 128,-72 190,-72 190,-72 196,-72 202,-78 202,-84 202,-84 202,-96 202,-96 202,-102 196,-108 190,-108"/>
<text text-anchor="middle" x="159" y="-93" font-family="sans" font-size="10.00">samtools_sort</text>
<text text-anchor="middle" x="159" y="-82" font-family="sans" font-size="10.00">sample: B</text>
</g>
<!-- 3&#45;&gt;1 -->
<g id="edge2" class="edge"><title>3&#45;&gt;1</title>
<path fill="none" stroke="grey" stroke-width="2" d="M159,-71.6966C159,-63.9827 159,-54.7125 159,-46.1124"/>
<polygon fill="grey" stroke="grey" stroke-width="2" points="162.5,-46.1043 159,-36.1043 155.5,-46.1044 162.5,-46.1043"/>
</g>
<!-- 4 -->
<g id="node5" class="node"><title>4</title>
<path fill="none" stroke="#56d8d8" stroke-width="2" stroke-dasharray="5,2" d="M70.5,-180C70.5,-180 23.5,-180 23.5,-180 17.5,-180 11.5,-174 11.5,-168 11.5,-168 11.5,-156 11.5,-156 11.5,-150 17.5,-144 23.5,-144 23.5,-144 70.5,-144 70.5,-144 76.5,-144 82.5,-150 82.5,-156 82.5,-156 82.5,-168 82.5,-168 82.5,-174 76.5,-180 70.5,-180"/>
<text text-anchor="middle" x="47" y="-165" font-family="sans" font-size="10.00">bwa_map</text>
<text text-anchor="middle" x="47" y="-154" font-family="sans" font-size="10.00">samples: A</text>
</g>
<!-- 4&#45;&gt;2 -->
<g id="edge3" class="edge"><title>4&#45;&gt;2</title>
<path fill="none" stroke="grey" stroke-width="2" d="M47,-143.697C47,-135.983 47,-126.712 47,-118.112"/>
<polygon fill="grey" stroke="grey" stroke-width="2" points="50.5001,-118.104 47,-108.104 43.5001,-118.104 50.5001,-118.104"/>
</g>
<!-- 5 -->
<g id="node6" class="node"><title>5</title>
<path fill="none" stroke="#56d8d8" stroke-width="2" d="M182.5,-180C182.5,-180 135.5,-180 135.5,-180 129.5,-180 123.5,-174 123.5,-168 123.5,-168 123.5,-156 123.5,-156 123.5,-150 129.5,-144 135.5,-144 135.5,-144 182.5,-144 182.5,-144 188.5,-144 194.5,-150 194.5,-156 194.5,-156 194.5,-168 194.5,-168 194.5,-174 188.5,-180 182.5,-180"/>
<text text-anchor="middle" x="159" y="-165" font-family="sans" font-size="10.00">bwa_map</text>
<text text-anchor="middle" x="159" y="-154" font-family="sans" font-size="10.00">samples: B</text>
</g>
<!-- 5&#45;&gt;3 -->
<g id="edge4" class="edge"><title>5&#45;&gt;3</title>
<path fill="none" stroke="grey" stroke-width="2" d="M159,-143.697C159,-135.983 159,-126.712 159,-118.112"/>
<polygon fill="grey" stroke="grey" stroke-width="2" points="162.5,-118.104 159,-108.104 155.5,-118.104 162.5,-118.104"/>
</g>
</g>
</svg>
