<?xml version="1.0" encoding="UTF-8" standalone="no"?>
<!DOCTYPE svg PUBLIC "-//W3C//DTD SVG 1.1//EN"
 "http://www.w3.org/Graphics/SVG/1.1/DTD/svg11.dtd">
<!-- Generated by graphviz version 2.40.1 (20161225.0304)
 -->
<!-- Title: snakemake_dag Pages: 1 -->
<svg width="214pt" height="188pt"
 viewBox="0.00 0.00 213.55 188.00" xmlns="http://www.w3.org/2000/svg" xmlns:xlink="http://www.w3.org/1999/xlink">
<g id="graph0" class="graph" transform="scale(1 1) rotate(0) translate(4 184)">
<title>snakemake_dag</title>
<polygon fill="#ffffff" stroke="transparent" points="-4,4 -4,-184 209.548,-184 209.548,4 -4,4"/>
<!-- 0 -->
<g id="node1" class="node">
<title>0</title>
<path fill="none" stroke="#d85656" stroke-width="2" d="M118.4115,-36C118.4115,-36 88.4115,-36 88.4115,-36 82.4115,-36 76.4115,-30 76.4115,-24 76.4115,-24 76.4115,-12 76.4115,-12 76.4115,-6 82.4115,0 88.4115,0 88.4115,0 118.4115,0 118.4115,0 124.4115,0 130.4115,-6 130.4115,-12 130.4115,-12 130.4115,-24 130.4115,-24 130.4115,-30 124.4115,-36 118.4115,-36"/>
<text text-anchor="middle" x="103.4115" y="-15" font-family="sans" font-size="10.00" fill="#000000">all</text>
</g>
<!-- 1 -->
<g id="node2" class="node">
<title>1</title>
<path fill="none" stroke="#56d8a9" stroke-width="2" d="M118.4115,-108C118.4115,-108 88.4115,-108 88.4115,-108 82.4115,-108 76.4115,-102 76.4115,-96 76.4115,-96 76.4115,-84 76.4115,-84 76.4115,-78 82.4115,-72 88.4115,-72 88.4115,-72 118.4115,-72 118.4115,-72 124.4115,-72 130.4115,-78 130.4115,-84 130.4115,-84 130.4115,-96 130.4115,-96 130.4115,-102 124.4115,-108 118.4115,-108"/>
<text text-anchor="middle" x="103.4115" y="-87" font-family="sans" font-size="10.00" fill="#000000">merge</text>
</g>
<!-- 1&#45;&gt;0 -->
<g id="edge1" class="edge">
<title>1&#45;&gt;0</title>
<path fill="none" stroke="#c0c0c0" stroke-width="2" d="M103.4115,-71.8314C103.4115,-64.131 103.4115,-54.9743 103.4115,-46.4166"/>
<polygon fill="#c0c0c0" stroke="#c0c0c0" stroke-width="2" points="106.9116,-46.4132 103.4115,-36.4133 99.9116,-46.4133 106.9116,-46.4132"/>
</g>
<!-- 2 -->
<g id="node3" class="node">
<title>2</title>
<path fill="none" stroke="#afd856" stroke-width="2" d="M44.7348,-180C44.7348,-180 12.0882,-180 12.0882,-180 6.0882,-180 .0882,-174 .0882,-168 .0882,-168 .0882,-156 .0882,-156 .0882,-150 6.0882,-144 12.0882,-144 12.0882,-144 44.7348,-144 44.7348,-144 50.7348,-144 56.7348,-150 56.7348,-156 56.7348,-156 56.7348,-168 56.7348,-168 56.7348,-174 50.7348,-180 44.7348,-180"/>
<text text-anchor="middle" x="28.4115" y="-165" font-family="sans" font-size="10.00" fill="#000000">extract</text>
<text text-anchor="middle" x="28.4115" y="-153" font-family="sans" font-size="10.00" fill="#000000">sample: A</text>
</g>
<!-- 2&#45;&gt;1 -->
<g id="edge2" class="edge">
<title>2&#45;&gt;1</title>
<path fill="none" stroke="#c0c0c0" stroke-width="2" d="M47.3372,-143.8314C56.3972,-135.1337 67.3924,-124.5783 77.238,-115.1265"/>
<polygon fill="#c0c0c0" stroke="#c0c0c0" stroke-width="2" points="79.7019,-117.613 84.4919,-108.1628 74.8541,-112.5633 79.7019,-117.613"/>
</g>
<!-- 3 -->
<g id="node4" class="node">
<title>3</title>
<path fill="none" stroke="#afd856" stroke-width="2" d="M119.6852,-180C119.6852,-180 87.1378,-180 87.1378,-180 81.1378,-180 75.1378,-174 75.1378,-168 75.1378,-168 75.1378,-156 75.1378,-156 75.1378,-150 81.1378,-144 87.1378,-144 87.1378,-144 119.6852,-144 119.6852,-144 125.6852,-144 131.6852,-150 131.6852,-156 131.6852,-156 131.6852,-168 131.6852,-168 131.6852,-174 125.6852,-180 119.6852,-180"/>
<text text-anchor="middle" x="103.4115" y="-165" font-family="sans" font-size="10.00" fill="#000000">extract</text>
<text text-anchor="middle" x="103.4115" y="-153" font-family="sans" font-size="10.00" fill="#000000">sample: B</text>
</g>
<!-- 3&#45;&gt;1 -->
<g id="edge3" class="edge">
<title>3&#45;&gt;1</title>
<path fill="none" stroke="#c0c0c0" stroke-width="2" d="M103.4115,-143.8314C103.4115,-136.131 103.4115,-126.9743 103.4115,-118.4166"/>
<polygon fill="#c0c0c0" stroke="#c0c0c0" stroke-width="2" points="106.9116,-118.4132 103.4115,-108.4133 99.9116,-118.4133 106.9116,-118.4132"/>
</g>
<!-- 4 -->
<g id="node5" class="node">
<title>4</title>
<path fill="none" stroke="#afd856" stroke-width="2" d="M193.6852,-180C193.6852,-180 161.1378,-180 161.1378,-180 155.1378,-180 149.1378,-174 149.1378,-168 149.1378,-168 149.1378,-156 149.1378,-156 149.1378,-150 155.1378,-144 161.1378,-144 161.1378,-144 193.6852,-144 193.6852,-144 199.6852,-144 205.6852,-150 205.6852,-156 205.6852,-156 205.6852,-168 205.6852,-168 205.6852,-174 199.6852,-180 193.6852,-180"/>
<text text-anchor="middle" x="177.4115" y="-165" font-family="sans" font-size="10.00" fill="#000000">extract</text>
<text text-anchor="middle" x="177.4115" y="-153" font-family="sans" font-size="10.00" fill="#000000">sample: C</text>
</g>
<!-- 4&#45;&gt;1 -->
<g id="edge4" class="edge">
<title>4&#45;&gt;1</title>
<path fill="none" stroke="#c0c0c0" stroke-width="2" d="M158.7382,-143.8314C149.8866,-135.219 139.1629,-124.7851 129.522,-115.4048"/>
<polygon fill="#c0c0c0" stroke="#c0c0c0" stroke-width="2" points="131.6869,-112.6279 122.0789,-108.1628 126.8054,-117.645 131.6869,-112.6279"/>
</g>
</g>
</svg>
